<svg width="120" height="120" viewBox="0 0 120 120" fill="none" xmlns="http://www.w3.org/2000/svg">
<rect width="120" height="120" rx="8" fill="black"/>
<path d="M60.1259 88L39.8059 63.12V88H28.6059V32.16H39.8059V57.2L60.1259 32.16H73.6459L50.6059 59.84L74.2859 88H60.1259ZM86.6128 88.56C84.5861 88.56 82.9061 87.9467 81.5728 86.72C80.2928 85.44 79.6528 83.8667 79.6528 82C79.6528 80.1333 80.2928 78.5867 81.5728 77.36C82.9061 76.08 84.5861 75.44 86.6128 75.44C88.5861 75.44 90.2128 76.08 91.4928 77.36C92.7728 78.5867 93.4128 80.1333 93.4128 82C93.4128 83.8667 92.7728 85.44 91.4928 86.72C90.2128 87.9467 88.5861 88.56 86.6128 88.56Z" fill="white"/>
</svg>
